<svg width="16" height="16" viewBox="0 0 16 16" fill="none" xmlns="http://www.w3.org/2000/svg">
  <path d="M11 9.5C11 9.22386 10.7761 9 10.5 9H8V11H10.5C10.7761 11 11 10.7761 11 10.5V9.5Z" fill="#5B6667" class="style0" />
  <path d="M7 11V9H4.5C4.22386 9 4 9.22386 4 9.5V10.5C4 10.7761 4.22386 11 4.5 11H7Z" fill="#5B6667" class="style0" />
  <path d="M7 7V5H2.5C2.22386 5 2 5.22386 2 5.5V6.5C2 6.77614 2.22386 7 2.5 7H7Z" fill="#5B6667" class="style0" />
  <path d="M8 5V7H12.5C12.7761 7 13 6.77614 13 6.5V5.5C13 5.22386 12.7761 5 12.5 5H8Z" fill="#5B6667" class="style0" />
  <path d="M7.5 1C7.77614 1 8 1.22386 8 1.5V14.5C8 14.7761 7.77614 15 7.5 15C7.22386 15 7 14.7761 7 14.5V1.5C7 1.22386 7.22386 1 7.5 1Z" fill="#AF5063" class="style2" />
</svg>