<svg width="16" height="16" viewBox="0 0 16 16" fill="none" xmlns="http://www.w3.org/2000/svg">
  <path d="M6 9.5C6 9.22386 6.22386 9 6.5 9H11.5C11.7761 9 12 9.22386 12 9.5V10.5C12 10.7761 11.7761 11 11.5 11H6.5C6.22386 11 6 10.7761 6 10.5V9.5Z" fill="#5B6667" class="style0" />
  <path d="M12 5.5C12 5.22386 11.7761 5 11.5 5H3.5C3.22386 5 3 5.22386 3 5.5V6.5C3 6.77614 3.22386 7 3.5 7H11.5C11.7761 7 12 6.77614 12 6.5V5.5Z" fill="#5B6667" class="style0" />
  <path d="M14.5 1C14.7761 1 15 1.22386 15 1.5V14.5C15 14.7761 14.7761 15 14.5 15C14.2239 15 14 14.7761 14 14.5V1.5C14 1.22386 14.2239 1 14.5 1Z" fill="#AF5063" class="style2" />
</svg>