<svg width="16" height="16" viewBox="0 0 16 16" fill="none" xmlns="http://www.w3.org/2000/svg">
  <path d="M4 9.5C4 9.22386 4.22386 9 4.5 9H9.5C9.77614 9 10 9.22386 10 9.5V10.5C10 10.7761 9.77614 11 9.5 11H4.5C4.22386 11 4 10.7761 4 10.5V9.5Z" fill="#5B6667" class="style0" />
  <path d="M13 5.5C13 5.22386 12.7761 5 12.5 5H4.5C4.22386 5 4 5.22386 4 5.5V6.5C4 6.77614 4.22386 7 4.5 7H12.5C12.7761 7 13 6.77614 13 6.5V5.5Z" fill="#5B6667" class="style0" />
  <path d="M1.5 1C1.77614 1 2 1.22386 2 1.5V14.5C2 14.7761 1.77614 15 1.5 15C1.22386 15 1 14.7761 1 14.5V1.5C1 1.22386 1.22386 1 1.5 1Z" fill="#AF5063" class="style2" />
</svg>