<svg width="16" height="16" viewBox="0 0 16 16" fill="none" xmlns="http://www.w3.org/2000/svg">
  <g opacity="0.5">
    <path d="M12.5003 11.1292C12.9786 11.4054 13.1425 12.0169 12.8664 12.4952C12.5902 12.9735 11.9786 13.1374 11.5003 12.8613C11.0221 12.5851 10.8582 11.9735 11.1343 11.4952C11.4105 11.0169 12.0221 10.8531 12.5003 11.1292Z" fill="#B8CBFF" class="style10" />
    <path fill-rule="evenodd" clip-rule="evenodd" d="M8.57853 10.1139L10.2666 12.9999C10.8189 13.9565 12.042 14.2843 12.9986 13.732C13.9552 13.1797 14.283 11.9565 13.7307 10.9999C13.1784 10.0434 11.9552 9.71561 10.9986 10.2679C10.9321 10.3063 10.8687 10.3479 10.8085 10.3923C10.6944 10.4765 10.5498 10.5083 10.4109 10.4797C10.272 10.4511 10.1517 10.3648 10.0801 10.2424L9.29173 8.89458L8.57853 10.1139ZM4.79309 1.20337L7.42003 5.69458L6.70682 6.91393L4.47549 3.09909C4.10332 2.4628 4.25299 1.6659 4.79309 1.20337Z" fill="#B8CBFF" class="style10" />
  </g>
  <path d="M12.5004 11.1292C12.9787 11.4054 13.1426 12.017 12.8665 12.4953C12.5903 12.9735 11.9787 13.1374 11.5004 12.8613C11.0221 12.5851 10.8583 11.9735 11.1344 11.4953C11.4105 11.017 12.0221 10.8531 12.5004 11.1292Z" fill="#496DDA" class="style6" />
  <path d="M4.50043 11.1292C4.97872 11.4054 5.1426 12.017 4.86646 12.4953C4.59031 12.9735 3.97872 13.1374 3.50043 12.8613C3.02214 12.5851 2.85826 11.9735 3.13441 11.4953C3.41055 11.017 4.02214 10.8531 4.50043 11.1292Z" fill="#496DDA" class="style6" />
  <path fill-rule="evenodd" clip-rule="evenodd" d="M4.71147 0.0666637C4.94962 -0.0704769 5.25382 0.0102959 5.39257 0.247516L7.99936 4.70427L10.6061 0.247528C10.7449 0.0103076 11.0491 -0.0704654 11.2873 0.0666751L11.4759 0.175318C12.6782 0.867628 13.0868 2.40647 12.3863 3.604L9.87107 7.90427L10.6882 9.30122C12.0913 8.61803 13.8044 9.12752 14.5968 10.5C15.4252 11.9348 14.9336 13.7696 13.4987 14.598C12.0642 15.4262 10.2301 14.9351 9.40136 13.5012L7.99936 11.1043L6.59809 13.5L6.59736 13.5012C5.76859 14.9351 3.93447 15.4262 2.50001 14.5981C1.06513 13.7696 0.573509 11.9349 1.40194 10.5C2.19432 9.12753 3.90738 8.61804 5.31056 9.30123L6.12766 7.90427L3.61239 3.60399C2.91194 2.40646 3.32055 0.867617 4.5228 0.175306L4.71147 0.0666637ZM8.57861 10.1139L10.2667 13C10.8189 13.9565 12.0421 14.2843 12.9987 13.732C13.9553 13.1797 14.283 11.9565 13.7308 11C13.1785 10.0434 11.9553 9.71563 10.9987 10.2679C10.9321 10.3063 10.8688 10.3479 10.8086 10.3923C10.6945 10.4765 10.5499 10.5083 10.411 10.4797C10.272 10.4511 10.1518 10.3649 10.0802 10.2424L9.29182 8.8946L8.57861 10.1139ZM4.79317 1.20339L7.42011 5.6946L6.70691 6.91395L4.47557 3.09911C4.1034 2.46281 4.25307 1.66592 4.79317 1.20339ZM3.00001 13.732C2.04343 13.1797 1.71568 11.9566 2.26796 11C2.82025 10.0434 4.04343 9.71564 5.00001 10.2679C5.06658 10.3064 5.12996 10.3479 5.1901 10.3923C5.30424 10.4765 5.44879 10.5083 5.58773 10.4797C5.72668 10.4511 5.84694 10.3649 5.91856 10.2424L11.2056 1.2034C11.7456 1.66593 11.8953 2.46283 11.5231 3.09912L5.73348 12.9975L5.73206 13C5.17978 13.9566 3.9566 14.2843 3.00001 13.732Z" fill="#496DDA" class="style6" />
</svg>