<svg width="16" height="16" viewBox="0 0 16 16" fill="none" xmlns="http://www.w3.org/2000/svg">
  <path fill-rule="evenodd" clip-rule="evenodd" d="M4 0C2.89543 0 2 0.895431 2 2V5.5C2 5.77614 2.22386 6 2.5 6C2.77614 6 3 5.77614 3 5.5V2C3 1.44772 3.44772 1 4 1H8.87868C8.91944 1 8.95995 1.00249 9 1.00738V4C9 4.55228 9.44772 5 10 5H12.9926C12.9975 5.04005 13 5.08056 13 5.12132V5.5C13 5.77614 13.2239 6 13.5 6C13.7761 6 14 5.77614 14 5.5V5.12132C14 4.59089 13.7893 4.08218 13.4142 3.70711L10.2929 0.585786C9.91782 0.210714 9.40911 0 8.87868 0H4ZM10 4V1.70711L12.2929 4H10Z" fill="#496DDA" class="style6" />
  <path d="M14 13.5C14 13.2239 13.7761 13 13.5 13C13.2239 13 13 13.2239 13 13.5V14C13 14.5523 12.5523 15 12 15H4C3.44772 15 3 14.5523 3 14V13.5C3 13.2239 2.77614 13 2.5 13C2.22386 13 2 13.2239 2 13.5V14C2 15.1046 2.89543 16 4 16H12C13.1046 16 14 15.1046 14 14V13.5Z" fill="#496DDA" class="style6" />
  <path d="M1.24072 6.90918V7.68226H2.81423V12.0001H3.729V7.68226H5.30251V6.90918H1.24072Z" fill="#5B6667" class="style0" />
  <path d="M6.85613 6.90918L7.97723 8.77353H8.017L9.14307 6.90918H10.1946L8.62602 9.45463L10.2194 12.0001H9.15052L8.017 10.1482H7.97723L6.84371 12.0001H5.77979L7.38809 9.45463L5.79967 6.90918H6.85613Z" fill="#5B6667" class="style0" />
  <path d="M10.6948 7.68226V6.90918H14.7566V7.68226H13.1831V12.0001H12.2683V7.68226H10.6948Z" fill="#5B6667" class="style0" />
</svg>